<svg width="77" height="80" viewBox="0 0 77 80" fill="none" xmlns="http://www.w3.org/2000/svg">
<path d="M53.8499 79.2857H22.4267C16.5 79.2784 10.8181 76.9192 6.62722 72.7256C2.43638 68.5319 0.078783 62.8461 0.0715332 56.9154V23.3601C0.078783 17.4294 2.43638 11.7436 6.62722 7.54996C10.8181 3.3563 16.5 0.997123 22.4267 0.989868H53.8499C59.7766 0.997123 65.4586 3.3563 69.6494 7.54996C73.8402 11.7436 76.1978 17.4294 76.2051 23.3601V56.9154C76.1978 62.8461 73.8402 68.5319 69.6494 72.7256C65.4586 76.9192 59.7766 79.2784 53.8499 79.2857ZM22.4267 6.73321C18.0198 6.73683 13.7942 8.48932 10.6768 11.6063C7.55934 14.7233 5.80455 18.9502 5.7973 23.3601V56.9154C5.80455 61.3266 7.55889 65.555 10.6759 68.6741C13.793 71.7933 18.0185 73.5488 22.4267 73.556H53.8499C58.2568 73.5488 62.481 71.7928 65.5958 68.6733C68.7107 65.5538 70.462 61.3253 70.4656 56.9154V23.3601C70.462 18.9515 68.7103 14.7245 65.595 11.6071C62.4797 8.48977 58.2556 6.73684 53.8499 6.73321H22.4267Z" fill="#8DEA44"/>
<path d="M38.1385 60.8361C32.6272 60.8288 27.3439 58.6338 23.4481 54.7328C19.5523 50.8318 17.3623 45.5435 17.3586 40.0285C17.3651 37.2177 17.9318 34.4364 19.0255 31.8474C20.1192 29.2584 21.718 26.9137 23.7282 24.9505C25.637 23.0704 27.9061 21.596 30.3991 20.6161C32.892 19.6362 35.5572 19.1709 38.2344 19.2483C44.7136 19.4402 50.0832 21.6196 53.768 25.5536C55.5438 27.5228 56.913 29.8238 57.7969 32.3245C58.6808 34.8251 59.062 37.4758 58.9184 40.1244C58.8377 45.6246 56.6337 50.8803 52.768 54.7912C50.85 56.7165 48.5694 58.2422 46.0583 59.2798C43.5471 60.3174 40.8553 60.8463 38.1385 60.8361ZM37.6591 26.2253C34.2673 26.2361 31.0156 27.58 28.6047 29.9673C27.2634 31.2772 26.197 32.8418 25.4678 34.5694C24.7386 36.2971 24.3614 38.1531 24.3583 40.0285C24.3628 41.8393 24.7237 43.6315 25.4204 45.3028C26.1171 46.9741 27.1359 48.4918 28.4187 49.7691C29.7015 51.0464 31.2231 52.0583 32.8967 52.7471C34.5703 53.4359 36.3631 53.7882 38.1728 53.7837C39.9824 53.7792 41.7734 53.418 43.4436 52.7209C45.1138 52.0237 46.6304 51.0042 47.9068 49.7206C49.1832 48.4369 50.1945 46.9143 50.8829 45.2395C51.5712 43.5648 51.9232 41.7708 51.9187 39.9599C52.1405 36.4563 50.9686 33.0071 48.6586 30.3648C46.2751 27.8153 42.6041 26.4034 38.0289 26.2527L37.6591 26.2253Z" fill="#8DEA44"/>
<path d="M59.4251 23.4974C62.1032 23.4974 64.2742 21.3249 64.2742 18.645C64.2742 15.9651 62.1032 13.7926 59.4251 13.7926C56.7471 13.7926 54.576 15.9651 54.576 18.645C54.576 21.3249 56.7471 23.4974 59.4251 23.4974Z" fill="#8DEA44"/>
</svg>
