<svg width="81" height="82" viewBox="0 0 81 82" fill="none" xmlns="http://www.w3.org/2000/svg">
<path d="M75.0041 0H5.98008C2.67363 0 0 2.64258 0 5.90977V76.0742C0 79.3414 2.67363 82 5.98008 82H75.0041C78.3106 82 81 79.3414 81 76.0902V5.90977C81 2.64258 78.3106 0 75.0041 0ZM24.0311 69.8762H12.0076V30.734H24.0311V69.8762ZM18.0193 25.4008C14.1592 25.4008 11.0426 22.2457 11.0426 18.3539C11.0426 14.4621 14.1592 11.307 18.0193 11.307C21.8637 11.307 24.9803 14.4621 24.9803 18.3539C24.9803 22.2297 21.8637 25.4008 18.0193 25.4008ZM69.024 69.8762H57.0164V50.8496C57.0164 46.3172 56.9373 40.4715 50.7674 40.4715C44.5184 40.4715 43.5691 45.4203 43.5691 50.5293V69.8762H31.5773V30.734H43.0945V36.0832H43.2527C44.8506 33.0082 48.774 29.757 54.6117 29.757C66.7775 29.757 69.024 37.8609 69.024 48.3992V69.8762Z" fill="#8DEA44"/>
</svg>
